# xmcd
#
# Track frame offsets: 
#        150
#        16330
#        30856
#        47787
#        64379
#        79863
#        99536
#        116059
#        133456
#        152636
#        172639
#        187763
#        206354
#        227787
#        255141
#
# Disc length: 4440 seconds
#
# Revision: 10
# Processed by: cddbd v1.5.2PL0 Copyright (c) Steve Scherf et al.
# Submitted via: ExactAudioCopy v1.1
#
DISCID=b611560f
DTITLE=Jamelia - Thank You
DYEAR=2004
DGENRE=R&B
TTITLE0=Superstar
TTITLE1=Thank You
TTITLE2=DJ
TTITLE3=See It In A Boy's Eye
TTITLE4=Taxi
TTITLE5=Dirty Dirty
TTITLE6=Club Hoppin' (feat. Bubba Sparxxx)
TTITLE7=Cutie
TTITLE8=Bounce
TTITLE9=Bout (feat. Rah Digga)
TTITLE10=Off Da Endz (feat. Asher D)
TTITLE11=B.I.T.C.H.
TTITLE12=Life
TTITLE13=Antidote
TTITLE14=DATA
EXTD=2004 EMI Records Ltd
EXTT0=
EXTT1=
EXTT2=
EXTT3=
EXTT4=
EXTT5=
EXTT6=
EXTT7=
EXTT8=
EXTT9=
EXTT10=
EXTT11=
EXTT12=
EXTT13=
EXTT14=
PLAYORDER=
